<?xml version="1.0" encoding="UTF-8"?>
<svg id="Layer_1" xmlns="http://www.w3.org/2000/svg" version="1.1" viewBox="0 0 841.89 595.28">
  <!-- Generator: Adobe Illustrator 29.6.1, SVG Export Plug-In . SVG Version: 2.1.1 Build 9)  -->
  <defs>
    <style>
      .st0 {
        fill: none;
      }

      .st1 {
        fill: #ebcd38;
      }

      .st2 {
        fill: #222221;
        font-family: Montserrat-Black, Montserrat;
        font-size: 12.62px;
        font-weight: 800;
      }

      .st3 {
        fill: #ebcd36;
      }
    </style>
  </defs>
  <path class="st1" d="M281.81,303c-.62-1.12-1.98-1.51-3.05-.86l-3.13,1.91v-9.34h.15c.82,0,1.48-.7,1.48-1.56v-.2c0-.86-.66-1.56-1.48-1.56h-39.81c-.81,0-1.48.7-1.48,1.56v.2c0,.86.66,1.56,1.48,1.56h.15v9.34l-3.13-1.91c-1.07-.65-2.43-.26-3.05.86-.62,1.12-.25,2.56.82,3.21l5.36,3.26v19.31c0,3.59,2.76,6.5,6.16,6.5h27.18c3.4,0,6.16-2.91,6.16-6.5v-19.31l5.36-3.26c1.07-.65,1.43-2.09.82-3.21Z"/>
  <path class="st0" d="M264.01,286.26c1.45-.27,3.04-.63,3.8-1.61.29-.37.43-.79.5-1.22.14-.82.04-1.66-.27-2.45-.73-1.8-2.62-3.37-2.53-5.25.05-1.13.83-2.16,1.58-3.14"/>
  <path class="st3" d="M264.28,287.23c1.42-.27,3.02-.6,4.07-1.67,1.22-1.24,1.25-3.3.66-4.84-.52-1.35-1.53-2.41-2.18-3.69-.76-1.51.21-2.72,1.13-3.91.34-.44.06-1.13-.36-1.38-.52-.31-1.05-.07-1.38.36-.9,1.16-1.82,2.47-1.71,4.02.1,1.38.91,2.53,1.66,3.64s1.59,2.5,1.05,3.91c-.46,1.21-2.38,1.4-3.47,1.61-1.28.25-.74,2.19.54,1.95h0Z"/>
  <path class="st0" d="M254.01,286.26c1.45-.27,3.04-.63,3.8-1.61.29-.37.43-.79.5-1.22.14-.82.04-1.66-.27-2.45-.73-1.8-2.62-3.37-2.53-5.25.05-1.13.83-2.16,1.58-3.14"/>
  <path class="st3" d="M254.28,287.23c1.42-.27,3.02-.6,4.07-1.67,1.22-1.24,1.25-3.3.66-4.84-.52-1.35-1.53-2.41-2.18-3.69-.76-1.51.21-2.72,1.13-3.91.34-.44.06-1.13-.36-1.38-.52-.31-1.05-.07-1.38.36-.9,1.16-1.82,2.47-1.71,4.02.1,1.38.91,2.53,1.66,3.64s1.59,2.5,1.05,3.91c-.46,1.21-2.38,1.4-3.47,1.61-1.28.25-.74,2.19.54,1.95h0Z"/>
  <path class="st0" d="M243.2,286.26c1.45-.27,3.04-.63,3.8-1.61.29-.37.43-.79.5-1.22.14-.82.04-1.66-.27-2.45-.73-1.8-2.62-3.37-2.53-5.25.05-1.13.83-2.16,1.58-3.14"/>
  <path class="st3" d="M243.47,287.23c1.42-.27,3.02-.6,4.07-1.67,1.22-1.24,1.25-3.3.66-4.84-.52-1.35-1.53-2.41-2.18-3.69-.76-1.51.21-2.72,1.13-3.91.34-.44.06-1.13-.36-1.38-.52-.31-1.05-.07-1.38.36-.9,1.16-1.82,2.47-1.71,4.02.1,1.38.91,2.53,1.66,3.64s1.59,2.5,1.05,3.91c-.46,1.21-2.38,1.4-3.47,1.61-1.28.25-.74,2.19.54,1.95h0Z"/>
  <text class="st2" transform="translate(278.18 320.07)"><tspan x="0" y="0">BUDGET </tspan><tspan x="0" y="15.14">BITES</tspan></text>
</svg>