<?xml version="1.0" encoding="UTF-8"?>
<svg id="Layer_1" xmlns="http://www.w3.org/2000/svg" version="1.1" viewBox="0 0 841.89 595.28">
  <!-- Generator: Adobe Illustrator 29.6.1, SVG Export Plug-In . SVG Version: 2.1.1 Build 9)  -->
  <defs>
    <style>
      .st0 {
        fill: #7f7fa0;
      }

      .st1 {
        fill: #c9c9d3;
      }

      .st2 {
        fill: #9c9caf;
      }
    </style>
  </defs>
  <path class="st2" d="M600.99,251.85s54.75-90.71,82.51-100.08c3.13-1.05,6.57.53,7.71,3.62,1.29,3.49,2.11,9.52.17,19.66-3.83,20.09-27.33,79.94-34.61,89.92-7.28,9.97-55.79-13.12-55.79-13.12Z"/>
  <path class="st1" d="M681.3,275.65s2.69-9.9-84.27-24.48c-86.96-14.57-219.05-33.08-219.05-33.08,0,0-118.32-18.15-139.47-12.69-20.59,5.32-47.76,23.05-60.32,25.8-1.68.37-3.6,1.1-4.67,1.77-1.53.95-1.67,1.56-.56,4.5,2.01,5.35,12.92,28.33,59.9,42.93,46.98,14.6,141.69,26.38,175.19,26.26l-21.16-20.08s-8.37-8.76,8.29-8.74c16.66.02,92.87,8.28,92.87,8.28l18.32,20.92s89.02-16.15,106.04-21.94l-19.78-13.29s-3.98-5.69,8.68-3.87c11,1.58,38.65,13,46.26,14.13,1.2.18,4.48-6.71,5.69-6.65l28.04.23Z"/>
  <path class="st2" d="M668.66,289.19s20.78-8.22,12.6-15.36c-7.19-6.27-10.79-4.57-10.79-4.57l-19.2,6.02s-52.76-10.04-57.78-7.15c-5.02,2.89,5.04,7.66,5.04,7.66l13.88,9.33s-74.53,16.33-102.79,17.13c-2.31.07-4.55-.75-6.27-2.3l-13.6-12.27c-1.11-1-2.51-1.62-3.99-1.76l-77.27-7.4s-33.11-4.44-21.6,8.08l21.16,20.08s-155.7-8.35-209.2-41.43c0,0-25.45-15.17-25.32-32.27,0,0-16.28,6.25-18.49,18.27-2.2,12.02,5.93,27.65,18.58,35.02,12.66,7.36,44.12,27.77,122.32,37.33,78.2,9.56,145.59,8.58,145.59,8.58,0,0,161.39,127.96,207.45,109.93,0,0,7.49-4.21-17.46-27.8l-101.88-90.48s101.89-18.94,109.46-24.03c0,0,31.5,18.91,43.74,14.18,1.81-.7,2.73-2.75,2.17-4.61-1.12-3.73-4.74-10.89-16.34-20.18Z"/>
  <rect class="st0" x="339.13" y="234.96" width="16.31" height="12.66" rx="4.73" ry="4.73" transform="translate(671.3 513.04) rotate(-174.8)"/>
  <rect class="st0" x="366.67" y="237.47" width="16.31" height="12.66" rx="4.73" ry="4.73" transform="translate(726.03 520.54) rotate(-174.8)"/>
  <rect class="st0" x="394.65" y="240.01" width="16.31" height="12.66" rx="4.73" ry="4.73" transform="translate(781.64 528.15) rotate(-174.8)"/>
  <rect class="st0" x="421.74" y="242.47" width="16.31" height="12.66" rx="4.73" ry="4.73" transform="translate(835.49 535.52) rotate(-174.8)"/>
  <rect class="st0" x="449.5" y="245" width="16.31" height="12.66" rx="4.73" ry="4.73" transform="translate(890.67 543.08) rotate(-174.8)"/>
  <rect class="st0" x="476.82" y="247.48" width="16.31" height="12.66" rx="4.73" ry="4.73" transform="translate(944.96 550.51) rotate(-174.8)"/>
  <rect class="st0" x="504.57" y="250.01" width="16.31" height="12.66" rx="4.73" ry="4.73" transform="translate(1000.13 558.06) rotate(-174.8)"/>
  <rect class="st0" x="531.89" y="252.49" width="16.31" height="12.66" rx="4.73" ry="4.73" transform="translate(1054.42 565.49) rotate(-174.8)"/>
  <rect class="st0" x="559.64" y="255.02" width="16.31" height="12.66" rx="4.73" ry="4.73" transform="translate(1109.59 573.05) rotate(-174.8)"/>
  <path class="st0" d="M236.71,205.9s39.15,13.07,50.64,25.86c0,0,6.92,5.46-6.75,9.21s-27.28,9.52-75.93-.12c-2.26-.45-4.5-1.03-6.68-1.75-5.15-1.71-15-5.13-19.8-7.89,0,0,17.82-6.24,26.93-11.83,0,0,27.66-14.01,31.59-13.48Z"/>
</svg>