<?xml version="1.0" encoding="UTF-8"?>
<svg id="Layer_1" xmlns="http://www.w3.org/2000/svg" xmlns:xlink="http://www.w3.org/1999/xlink" version="1.1" viewBox="0 0 841.89 595.28">
  <!-- Generator: Adobe Illustrator 29.6.1, SVG Export Plug-In . SVG Version: 2.1.1 Build 9)  -->
  <defs>
    <style>
      .st0 {
        fill: none;
      }

      .st1 {
        fill: #f8e37c;
      }

      .st2 {
        fill: #ebcd37;
      }

      .st3 {
        clip-path: url(#clippath);
      }
    </style>
    <clipPath id="clippath">
      <rect class="st0" x="315.45" y="196.21" width="211.64" height="207.57"/>
    </clipPath>
  </defs>
  <g class="st3">
    <g id="Group_19">
      <path id="Path_630" class="st1" d="M439.52,204.84h0c15.84-18.95,46.49-4.19,41.55,20.01-2.63,12.87,5.68,25.43,18.55,28.06,1.39.28,2.79.44,4.21.47,24.69.57,32.26,33.74,10.26,44.96-11.7,5.97-16.34,20.3-10.37,32,.64,1.26,1.4,2.46,2.25,3.58,14.95,19.66-6.26,46.25-28.76,36.05-11.96-5.42-26.06-.12-31.48,11.84-.58,1.29-1.05,2.62-1.4,4-6.05,23.94-40.07,23.94-46.12,0-3.22-12.74-16.15-20.45-28.89-17.23-1.37.35-2.71.81-3.99,1.4-22.49,10.2-43.7-16.4-28.75-36.05,7.95-10.46,5.92-25.39-4.54-33.34-1.12-.85-2.32-1.61-3.58-2.25-22-11.22-14.43-44.39,10.26-44.96,13.13-.3,23.53-11.19,23.23-24.32-.03-1.42-.19-2.82-.47-4.21-4.94-24.2,25.71-38.96,41.55-20.01,8.43,10.08,23.43,11.42,33.51,2.99,1.08-.91,2.09-1.91,2.99-2.99"/>
      <path id="Path_631" class="st2" d="M482.04,295.88c0,33.56-27.2,60.77-60.76,60.77-33.56,0-60.77-27.2-60.77-60.76,0-33.56,27.2-60.77,60.77-60.77,0,0,0,0,0,0,33.56,0,60.77,27.21,60.77,60.77"/>
      <path id="Path_632" class="st1" d="M396.36,302.73l17.5,18.71c3.18,3.4,8.3,2.09,10.67-1.38,8.3-12.1,16.61-24.2,24.91-36.3,1.19-1.73,2.38-3.46,3.57-5.19,2.08-3.03.57-7.54-2.44-9.3-3.37-1.97-7.21-.6-9.3,2.43-8.3,12.1-16.61,24.2-24.91,36.3-1.19,1.73-2.38,3.46-3.57,5.19,3.56-.46,7.12-.91,10.67-1.37-5.83-6.24-11.66-12.47-17.5-18.71-2.56-2.75-6.87-2.89-9.61-.33s-2.89,6.87-.33,9.61c.11.11.22.22.33.33"/>
    </g>
  </g>
</svg>