<?xml version="1.0" encoding="UTF-8"?>
<svg id="Layer_1" xmlns="http://www.w3.org/2000/svg" xmlns:xlink="http://www.w3.org/1999/xlink" version="1.1" viewBox="0 0 841.89 595.28">
  <!-- Generator: Adobe Illustrator 29.6.1, SVG Export Plug-In . SVG Version: 2.1.1 Build 9)  -->
  <defs>
    <style>
      .st0 {
        fill: none;
      }

      .st1 {
        fill: #f8e37c;
      }

      .st2 {
        fill: #ebcd37;
      }

      .st3 {
        clip-path: url(#clippath);
      }
    </style>
    <clipPath id="clippath">
      <rect class="st0" x="318.46" y="195.01" width="205.63" height="205.63"/>
    </clipPath>
  </defs>
  <g class="st3">
    <g id="Group_23">
      <path id="Path_635" class="st1" d="M524.09,297.83c0,56.78-46.03,102.81-102.81,102.82-56.78,0-102.81-46.03-102.82-102.81,0-56.78,46.03-102.81,102.81-102.82,0,0,0,0,0,0,56.78,0,102.81,46.03,102.81,102.81"/>
      <path id="Path_636" class="st2" d="M411.39,339.25c0-4.69.41-9.56,0-14.23-.19-2.19-.94-3.18-2.53-4.62-.51-.45-.61-.48.09.1-1.57-1.26-3.06-2.6-4.47-4.03-11.28-11.48-14.34-28.38-4.03-41.79,3.97-5.02,9.6-8.47,15.88-9.74,2.8-.57,5.65-.76,8.5-.56.23.01.46.04.7.06,1,.09-.64-.11-.1-.02.51.09,1.03.17,1.53.27,2.66.5,5.25,1.34,7.71,2.49,8.26,3.94,14.05,11.69,15.5,20.73,2.17,12.42-3.92,24.22-13,32.33-2.35,2.1-5.04,3.38-5.37,6.79-.1,1.07,0,2.21.01,3.29,0,2.86.02,5.72.03,8.59.02,6.56,10.22,6.57,10.2,0-.01-3.97-.03-7.94-.05-11.91l-2.52,4.4c16.97-12.91,26.95-34.23,17.74-54.97-5.59-12.59-18.02-20.77-31.57-22.18-24.85-2.58-45.2,20.86-41.41,45.15,1.85,11.84,9.72,22.97,19.48,29.8-.84-1.47-1.68-2.93-2.52-4.4v14.44c0,6.56,10.2,6.57,10.2,0"/>
      <path id="Path_637" class="st2" d="M407.68,296.57c2.78,2.98,5.57,5.95,8.35,8.93,2.38,2.55,6.22,1.57,8.01-1.03,3.97-5.77,7.93-11.54,11.89-17.32.56-.83,1.13-1.65,1.7-2.48,1.41-2.43.59-5.54-1.83-6.97-2.44-1.35-5.51-.55-6.97,1.83-3.96,5.78-7.92,11.55-11.89,17.32l-1.7,2.48c2.67-.35,5.33-.69,8.01-1.03-2.78-2.98-5.57-5.95-8.35-8.93-2-1.97-5.21-1.97-7.21,0-1.94,2.01-1.94,5.2,0,7.21"/>
      <path id="Path_638" class="st2" d="M377.13,313.46c-4.07,2.38-8.14,4.77-12.21,7.16-.58.34-1.17.68-1.75,1.02-2.43,1.42-3.25,4.55-1.83,6.98s4.55,3.25,6.98,1.83c4.07-2.38,8.14-4.77,12.21-7.16.58-.34,1.17-.68,1.75-1.02,2.43-1.42,3.25-4.55,1.83-6.98-1.42-2.43-4.55-3.25-6.98-1.83"/>
      <path id="Path_639" class="st2" d="M432.06,348.05h-22.08c-2.82,0-5.1,2.28-5.1,5.1s2.28,5.1,5.1,5.1h22.08c2.82,0,5.1-2.28,5.1-5.1s-2.28-5.1-5.1-5.1"/>
      <path id="Path_640" class="st2" d="M427.82,362.72h-13.61c-2.82,0-5.1,2.28-5.1,5.1s2.28,5.1,5.1,5.1h13.61c2.82,0,5.1-2.28,5.1-5.1s-2.28-5.1-5.1-5.1"/>
      <path id="Path_641" class="st2" d="M476.39,256.21l-12.25,7.1-1.75,1.02c-2.47,1.35-3.38,4.45-2.03,6.92s4.45,3.38,6.92,2.03c.09-.05.17-.1.26-.15l12.24-7.1,1.76-1.01c2.43-1.42,3.25-4.55,1.83-6.98-1.42-2.43-4.55-3.25-6.98-1.83"/>
      <path id="Path_642" class="st2" d="M450.93,233.35c-2.26,4.13-4.52,8.27-6.78,12.41-.33.6-.65,1.2-.98,1.8-1.38,2.46-.5,5.57,1.96,6.94,2.39,1.34,5.42.55,6.85-1.8,2.26-4.13,4.52-8.27,6.78-12.41.32-.6.65-1.2.98-1.79,1.42-2.43.6-5.56-1.83-6.98s-5.56-.6-6.98,1.83"/>
      <path id="Path_643" class="st2" d="M417.07,227.84v16.18c0,2.82,2.29,5.1,5.1,5.1,2.82,0,5.1-2.28,5.1-5.1v-16.18c0-2.82-2.28-5.1-5.1-5.1s-5.1,2.28-5.1,5.1"/>
      <path id="Path_644" class="st2" d="M384.6,238.62c2.38,4.08,4.76,8.15,7.14,12.23l1.02,1.75c1.38,2.46,4.48,3.33,6.94,1.96,2.46-1.38,3.33-4.48,1.96-6.94-.03-.05-.06-.11-.09-.16-2.38-4.08-4.76-8.15-7.14-12.23-.34-.58-.68-1.17-1.02-1.75-1.42-2.43-4.55-3.25-6.98-1.83-2.43,1.42-3.25,4.55-1.83,6.98"/>
      <path id="Path_645" class="st2" d="M362.59,263.6c3.92,2.61,7.85,5.21,11.79,7.81.57.38,1.13.75,1.7,1.13,2.43,1.4,5.54.59,6.98-1.83,1.35-2.44.55-5.51-1.83-6.98-3.93-2.61-7.86-5.21-11.79-7.81-.57-.38-1.13-.75-1.7-1.13-2.43-1.4-5.54-.59-6.98,1.83-1.35,2.44-.55,5.51,1.83,6.98"/>
      <path id="Path_646" class="st2" d="M462.65,321.89c3.93,2.61,7.86,5.21,11.79,7.81.56.38,1.13.75,1.7,1.13,2.43,1.4,5.54.59,6.98-1.83,1.35-2.44.55-5.51-1.83-6.98-3.93-2.61-7.86-5.21-11.79-7.81-.56-.38-1.13-.75-1.7-1.13-2.43-1.4-5.54-.59-6.98,1.83-1.35,2.44-.55,5.51,1.83,6.98"/>
      <path id="Path_647" class="st2" d="M355.5,298.24c4.71-.08,9.43-.17,14.14-.25.68-.01,1.36-.02,2.04-.03,2.82,0,5.1-2.28,5.1-5.1,0-2.82-2.28-5.1-5.1-5.1h0c-4.71.09-9.43.17-14.14.25-.68.01-1.36.02-2.04.04-2.82,0-5.1,2.28-5.1,5.1,0,2.82,2.28,5.1,5.1,5.1h0"/>
      <path id="Path_648" class="st2" d="M470.88,298.18c4.71.03,9.43.07,14.15.1h2.04c2.82.01,5.1-2.27,5.1-5.09,0-2.82-2.28-5.1-5.1-5.1-4.72-.03-9.44-.07-14.15-.1h-2.04c-2.82-.02-5.1,2.27-5.1,5.08,0,2.82,2.28,5.1,5.1,5.1h0"/>
    </g>
  </g>
</svg>