<?xml version="1.0" encoding="UTF-8"?>
<svg id="Layer_1" xmlns="http://www.w3.org/2000/svg" xmlns:xlink="http://www.w3.org/1999/xlink" version="1.1" viewBox="0 0 841.89 595.28">
  <!-- Generator: Adobe Illustrator 29.6.1, SVG Export Plug-In . SVG Version: 2.1.1 Build 9)  -->
  <defs>
    <style>
      .st0 {
        fill: none;
      }

      .st1, .st2 {
        fill: #f8e37c;
      }

      .st2 {
        font-family: ArialRoundedMTBold, 'Arial Rounded MT Bold';
        font-size: 130px;
      }

      .st2, .st3 {
        isolation: isolate;
      }

      .st4 {
        fill: #ebcd37;
      }

      .st5 {
        clip-path: url(#clippath);
      }
    </style>
    <clipPath id="clippath">
      <rect class="st0" x="318.8" y="195.35" width="204.96" height="204.96"/>
    </clipPath>
  </defs>
  <g id="Group_22">
    <g class="st5">
      <g id="Group_20">
        <path id="Path_633" class="st1" d="M523.75,297.82c0,56.6-45.88,102.48-102.47,102.48-56.6,0-102.48-45.88-102.48-102.47,0-56.6,45.88-102.48,102.47-102.48,0,0,0,0,0,0,56.6,0,102.47,45.88,102.47,102.47h0"/>
        <path id="Path_634" class="st4" d="M507.14,297.82c0,47.42-38.44,85.86-85.86,85.86s-85.86-38.44-85.86-85.86c0-47.42,38.44-85.86,85.86-85.86,47.42,0,85.86,38.44,85.86,85.86h0"/>
      </g>
    </g>
    <g id="_" class="st3">
      <text class="st2" transform="translate(380.54 334.72)"><tspan x="0" y="0">$</tspan></text>
    </g>
  </g>
</svg>