<?xml version="1.0" encoding="UTF-8"?>
<svg id="Layer_1" xmlns="http://www.w3.org/2000/svg" version="1.1" viewBox="0 0 841.89 595.28">
  <!-- Generator: Adobe Illustrator 29.6.1, SVG Export Plug-In . SVG Version: 2.1.1 Build 9)  -->
  <defs>
    <style>
      .st0 {
        fill: none;
      }

      .st1 {
        fill: #222221;
        font-family: Montserrat-Black, Montserrat;
        font-size: 8.51px;
        font-weight: 800;
      }

      .st2 {
        fill: #ebcd38;
      }

      .st3 {
        fill: #ebcd36;
      }
    </style>
  </defs>
  <path class="st2" d="M264.83,293.11c-.42-.76-1.34-1.02-2.05-.58l-2.11,1.29v-6.3h.1c.55,0,1-.47,1-1.05v-.13c0-.58-.45-1.05-1-1.05h-26.85c-.55,0-1,.47-1,1.05v.13c0,.58.45,1.05,1,1.05h.1v6.3l-2.11-1.29c-.72-.44-1.64-.18-2.05.58-.42.76-.17,1.73.55,2.17l3.62,2.2v13.02c0,2.42,1.86,4.38,4.16,4.38h18.33c2.3,0,4.16-1.96,4.16-4.38v-13.02l3.62-2.2c.72-.44.97-1.41.55-2.17Z"/>
  <path class="st0" d="M252.82,281.82c.97-.19,2.05-.43,2.56-1.08.19-.25.29-.53.34-.82.09-.55.03-1.12-.19-1.65-.49-1.21-1.76-2.27-1.71-3.54.04-.76.56-1.46,1.07-2.12"/>
  <path class="st3" d="M253,282.47c.96-.18,2.03-.4,2.75-1.12.82-.83.85-2.23.44-3.27-.35-.91-1.04-1.62-1.47-2.49-.51-1.02.14-1.84.76-2.64.23-.29.04-.76-.24-.93-.35-.21-.71-.05-.93.24-.6.79-1.23,1.67-1.15,2.71.07.93.61,1.71,1.12,2.46s1.07,1.69.71,2.64c-.31.82-1.61.95-2.34,1.09-.86.17-.5,1.48.36,1.31h0Z"/>
  <path class="st0" d="M246.08,281.82c.97-.19,2.05-.43,2.56-1.08.19-.25.29-.53.34-.82.09-.55.03-1.12-.19-1.65-.49-1.21-1.76-2.27-1.71-3.54.04-.76.56-1.46,1.07-2.12"/>
  <path class="st3" d="M246.26,282.47c.96-.18,2.03-.4,2.75-1.12.82-.83.85-2.23.44-3.27-.35-.91-1.04-1.62-1.47-2.49-.51-1.02.14-1.84.76-2.64.23-.29.04-.76-.24-.93-.35-.21-.71-.05-.93.24-.6.79-1.23,1.67-1.15,2.71.07.93.61,1.71,1.12,2.46s1.07,1.69.71,2.64c-.31.82-1.61.95-2.34,1.09-.86.17-.5,1.48.36,1.31h0Z"/>
  <path class="st0" d="M238.79,281.82c.97-.19,2.05-.43,2.56-1.08.19-.25.29-.53.34-.82.09-.55.03-1.12-.19-1.65-.49-1.21-1.76-2.27-1.71-3.54.04-.76.56-1.46,1.07-2.12"/>
  <path class="st3" d="M238.97,282.47c.96-.18,2.03-.4,2.75-1.12.82-.83.85-2.23.44-3.27-.35-.91-1.04-1.62-1.47-2.49-.51-1.02.14-1.84.76-2.64.23-.29.04-.76-.24-.93-.35-.21-.71-.05-.93.24-.6.79-1.23,1.67-1.15,2.71.07.93.61,1.71,1.12,2.46s1.07,1.69.71,2.64c-.31.82-1.61.95-2.34,1.09-.86.17-.5,1.48.36,1.31h0Z"/>
  <text class="st1" transform="translate(262.38 304.62)"><tspan x="0" y="0">BUDGET </tspan><tspan x="0" y="10.21">BITES</tspan></text>
</svg>