<?xml version="1.0" encoding="UTF-8"?>
<svg id="Layer_1" xmlns="http://www.w3.org/2000/svg" xmlns:xlink="http://www.w3.org/1999/xlink" version="1.1" viewBox="0 0 1919.5 840.69">
  <!-- Generator: Adobe Illustrator 29.6.1, SVG Export Plug-In . SVG Version: 2.1.1 Build 9)  -->
  <defs>
    <style>
      .st0 {
        fill: none;
      }

      .st1 {
        fill: #fef7d3;
      }

      .st2 {
        stroke: #717070;
        stroke-width: .79px;
      }

      .st2, .st3 {
        fill: url(#New_Pattern_Swatch_6);
      }

      .st4 {
        fill: #ebcd37;
      }
    </style>
    <pattern id="New_Pattern_Swatch_6" data-name="New Pattern Swatch 6" x="0" y="0" width="107.72" height="104.88" patternTransform="translate(15.28 -18.12)" patternUnits="userSpaceOnUse" viewBox="0 0 107.72 104.88">
      <g>
        <rect class="st0" x="0" width="107.72" height="104.88"/>
        <path class="st4" d="M91.87,22.3c-1.34-6.65-7.18-11.61-14.07-11.23-1.71.1-3.24.58-3.94,2.27-.64,1.52-.34,3.15.75,4.38,1.38,1.56,3.42,2.73,5.14,3.87s3.48,2.2,5.49,2.57c4.71.87,9.29-1.84,13.09-4.27l-1.29-.99c-.37,1.38-.81,2.68-1.57,3.9-1.29,2.08-2.93,3.95-4.47,5.85l1.46.85c.46-2.25-.21-4.46.24-6.69.22-1.1-1.46-1.57-1.69-.47-.46,2.25.21,4.46-.24,6.69-.16.77.87,1.59,1.46.85,1.62-2.01,3.37-4,4.74-6.2.83-1.34,1.33-2.8,1.74-4.32.19-.71-.63-1.41-1.29-.99-3.49,2.24-7.96,5.08-12.3,3.97-2.07-.53-3.88-1.82-5.61-3.02-1.45-1-4.48-2.49-4.25-4.6.25-2.27,3.04-2.05,4.74-1.85s3.27.77,4.69,1.65c2.96,1.83,4.81,4.86,5.48,8.23.22,1.1,1.91.64,1.69-.47h0Z"/>
        <path class="st4" d="M79.64,15.71l.12-.17c.06-.1.1-.21.1-.33.03-.12.02-.23-.02-.35-.03-.11-.08-.21-.16-.3-.06-.1-.14-.17-.25-.23l-.21-.09c-.16-.04-.31-.04-.47,0l-.21.09c-.13.08-.24.18-.31.31l-.12.17c-.06.1-.1.21-.1.33-.03.12-.02.23.02.35.03.11.08.21.16.3.06.1.14.17.25.23l.21.09c.16.04.31.04.47,0l.21-.09c.13-.08.24-.18.31-.31h0Z"/>
        <path class="st4" d="M32.23,9.87s.06-.09.09-.14c.04-.05.08-.11.11-.16.01-.02.11-.15.02-.03-.1.13.06-.07.07-.09.34-.4.7-.78,1.12-1.11,1.02-.82,2.5-1.31,3.93-1,1.13.25,2.16.84,3.07,1.55.51.4.96.88,1.46,1.29.02.02.05.03.07.05s.05.04.07.05c.16.12-.15-.12,0,0,1.04.85,2.05,1.91,2.44,3.24s-.15,3.14-1.3,3.89c-.93.61-2.01,1.1-3.04,1.52-.75.31-1.53.58-2.32.76-.57.13-1.33.22-1.78.14-.35-.06-.45-.09-.68-.24-.22-.14.06.06-.06-.04-.05-.05-.1-.1-.15-.15s-.13-.17-.21-.34c-.07-.16-.14-.6-.19-.86-.1-.47-.27-.93-.49-1.35-.39-.75-.98-1.38-1.64-1.9-.55-.44-1.29-.89-1.69-1.25-.11-.1-.21-.2-.31-.3-.03-.03-.13-.17-.03-.03-.04-.06-.08-.12-.12-.18-.02-.03-.1-.24-.04-.05-.02-.07-.05-.14-.06-.21-.02-.17,0-.03,0,0,0-.11,0-.22,0-.33-.01.11.07-.25.09-.33.07-.2.16-.38.25-.56.32-.6.73-1.14,1.16-1.66.71-.87-.52-2.11-1.24-1.24-1.13,1.39-2.77,3.48-1.65,5.33.76,1.26,2.28,1.77,3.22,2.8,1.13,1.24.72,3.27,2.34,4.21,1.45.84,3.36.41,4.85-.08s2.95-1.18,4.32-1.95c1.54-.86,2.55-2.65,2.64-4.41.1-1.95-1.04-3.74-2.38-5.04-.37-.36-.81-.64-1.19-.99-1.01-.92-2.03-1.84-3.31-2.44-2.12-.99-4.49-1.01-6.49.27-.97.62-1.89,1.48-2.49,2.47s.92,1.84,1.51.88Z"/>
        <circle class="st4" cx="37.15" cy="12.31" r="2.55"/>
        <path class="st4" d="M60.78,45.83c-.78,1.65-1.56,3.29-2.34,4.94l.9-.37c-1.54-.31-3.08-.62-4.62-.94-.99-.21-1.99-.41-2.98-.63-.27-.06-.6-.09-.86-.2-.47-.2-.13-.71.17-.96.21-.18.28-.52.21-.78-.02-.06-.03-.13-.05-.2-.04-.2,0,.1-.01-.1,0-.08-.01-.17,0-.25.01-.32.08-.46.48-.55.54-.12.69-.74.48-1.18.03.07.04.16,0-.02-.04-.17-.06-.24-.07-.3-.02-.31.12-.48.51-.61.34-.12.58-.4.59-.77,0-.07,0-.13.01-.2,0,.03-.02.07.02-.09.02-.08.04-.16.06-.24.08-.22.15-.4.47-.34.52.09,1-.21,1.01-.77,0-.23-.03,0,.03-.23.03-.11.14-.4.14-.37,0,.05-.18-.09-.03.01.12.08.24.15.35.23-.13-.1.11.09.14.11.09.07.18.15.26.23.2.17.39.35.58.53.41.39.81.79,1.2,1.2,1.19,1.23,2.35,2.51,3.48,3.81.68.78,1.8-.36,1.13-1.13-.96-1.1-1.94-2.19-2.94-3.25-.7-.74-1.42-1.49-2.18-2.17-.5-.45-1.08-1.03-1.77-1.14-1.28-.2-1.97,1.06-2,2.17l1.01-.77c-.91-.16-1.74.11-2.22.94-.25.43-.36.97-.37,1.47l.59-.77c-1.47.5-2.06,1.89-1.39,3.29l.48-1.18c-1.43.31-1.91,1.78-1.53,3.07l.21-.78c-1.07.89-1.24,2.83.16,3.5.53.26,1.19.32,1.76.45,1.86.4,3.72.78,5.59,1.16.5.1.99.2,1.49.3.32.07.75-.04.9-.37.78-1.65,1.56-3.29,2.34-4.94.44-.93-.94-1.74-1.38-.81Z"/>
        <path class="st4" d="M59.82,51.58c.78-1.65,1.56-3.29,2.34-4.94l-.9.37c1.54.31,3.08.62,4.62.94.99.21,1.99.41,2.98.63.27.06.6.09.86.2.47.2.13.71-.17.96-.21.18-.28.52-.21.78.02.06.03.13.05.2.04.2,0-.1.01.1,0,.08.01.17,0,.25-.01.32-.08.46-.48.55-.54.12-.69.74-.48,1.18-.03-.07-.04-.16,0,.02.04.17.06.24.07.3.02.31-.12.48-.51.61-.34.12-.58.4-.59.77,0,.07,0,.13-.01.2,0-.03.02-.07-.02.09-.02.08-.04.16-.06.24-.08.22-.15.4-.47.34-.52-.09-1,.21-1.01.77,0,.23.03,0-.03.23-.03.11-.14.4-.14.37,0-.05.18.09.03-.01-.12-.08-.24-.15-.35-.23.13.1-.11-.09-.14-.11-.09-.07-.18-.15-.26-.23-.2-.17-.39-.35-.58-.53-.41-.39-.81-.79-1.2-1.2-1.19-1.23-2.35-2.51-3.48-3.81-.68-.78-1.8.36-1.13,1.13.96,1.1,1.94,2.19,2.94,3.25.7.74,1.42,1.49,2.18,2.17.5.45,1.08,1.03,1.77,1.14,1.28.2,1.97-1.06,2-2.17l-1.01.77c.91.16,1.74-.11,2.22-.94.25-.43.36-.97.37-1.47l-.59.77c1.47-.5,2.06-1.89,1.39-3.29l-.48,1.18c1.43-.31,1.91-1.78,1.53-3.07l-.21.78c1.07-.89,1.24-2.83-.16-3.5-.53-.26-1.19-.32-1.76-.45-1.86-.4-3.72-.78-5.59-1.16-.5-.1-.99-.2-1.49-.3-.32-.07-.75.04-.9.37-.78,1.65-1.56,3.29-2.34,4.94-.44.93.94,1.74,1.38.81Z"/>
        <path class="st4" d="M18.85,37.65c-1.66-2.44-4.85-3.32-7.68-3.07-2.57.22-4.64,1.64-5.43,4.15-.91,2.86-.52,6.62,2.16,8.38,1.13.74,2.51,1.01,3.83,1.12,1.48.12,2.99-.07,4.35-.69,1.54-.71,2.64-2.05,3.16-3.65.66-2.04.78-4.38-.38-6.25-.59-.96-2.1-.08-1.51.88.87,1.41.71,3.03.3,4.57-.3,1.12-.94,2.07-1.95,2.66-1.77,1.04-4.42,1.01-6.27.19-2.27-1.01-2.63-3.7-2.21-5.91.38-2,1.6-3.37,3.64-3.68,2.18-.33,5.15.19,6.49,2.17.63.93,2.15.05,1.51-.88Z"/>
        <path class="st4" d="M13.62,35.19c-.01-.06-.02-.11-.03-.17l.03.23c-.04-.28-.04-.57,0-.85l-.03.23c.03-.2.07-.39.14-.58.08-.2-.1.2-.02.05.02-.05.05-.1.08-.15s.06-.1.09-.15c.02-.02.03-.04.05-.07.07-.1-.16.19-.07.09.08-.09.15-.17.24-.25.03-.03.15-.12,0,0s-.03.03,0,0c.06-.04.12-.08.18-.11s.12-.06.18-.09c.13-.07-.22.08-.08.03.04-.01.07-.03.11-.04.17-.06.34-.1.51-.14.45-.09.75-.65.61-1.08-.16-.48-.59-.7-1.08-.61-.95.18-1.87.73-2.32,1.62-.3.59-.43,1.27-.37,1.93.02.19.03.38.08.56.1.45.64.75,1.08.61.47-.15.72-.6.61-1.08h0Z"/>
        <path class="st4" d="M12.65,34.56c-.41-.46-.87-.87-1.35-1.25-.81-.64-1.82-1.3-2.91-1.1-.6.11-1.2.54-1.22,1.2s.57,1.18,1.12,1.45c1.19.59,2.6.72,3.91.77.33.01.64-.3.62-.62-.02-.35-.27-.61-.62-.62s-.68-.03-1.02-.07c-.15-.01-.3-.03-.45-.05.12.02-.03,0-.07-.01-.08-.01-.15-.02-.23-.04-.44-.08-.89-.18-1.31-.34-.02,0-.04-.02-.06-.03-.09-.03.06.02.06.02,0,0-.1-.04-.1-.05-.08-.04-.15-.07-.22-.11-.06-.03-.11-.07-.17-.1-.02-.02-.05-.03-.07-.05-.07-.05.07.06.07.06-.01-.02-.04-.03-.05-.04-.04-.03-.08-.07-.11-.11-.01-.02-.03-.03-.04-.05-.05-.05.07.09.06.08,0-.01-.02-.03-.03-.04-.02-.04-.08-.17-.03-.04s0,0,0-.04c-.04-.08.03.19.01.1,0-.01,0-.03,0-.05,0-.1-.04.17-.01.1,0-.02,0-.04.01-.06.04-.08-.09.16-.04.09,0-.01.01-.03.02-.04.07-.09-.14.13-.02.02.01-.01.03-.03.04-.04.06-.07-.14.09-.07.05.04-.02.08-.05.12-.07.14-.08-.16.05,0,0,.05-.02.11-.03.16-.05.02,0,.05,0,.07-.02.1-.02-.06.01-.07,0,.01,0,.05,0,.07,0,.05,0,.09,0,.14,0,.02,0,.05,0,.07,0,.09,0-.06-.01-.06-.01.05-.03.22.05.28.06.08.02.2.1.29.1-.08,0-.1-.05-.04-.02.02.01.05.02.07.03.05.02.1.05.15.07.1.05.19.11.29.16.19.12.37.25.56.38.09.07-.02-.02-.03-.02.03.02.06.04.08.06.05.04.1.08.14.12.09.07.18.15.27.23.15.14.3.28.45.42s.28.28.41.42c.22.24.66.24.88,0,.24-.26.23-.62,0-.88Z"/>
        <path class="st4" d="M89.17,58.8v9.59c0,.47.4.87.87.87h9.69c.47,0,.87-.4.87-.87v-8.37c0-.19-.01-.39,0-.57.06-.78.81-.96,1.25-1.48.82-.96.74-2.29-.21-3.09-.82-.7-1.89-1.09-2.91-1.38-2.54-.72-5.54-.93-8.08-.04-1.13.39-2.49,1.09-3.05,2.21-.28.55-.42,1.22-.24,1.83.12.39.37.72.71.94.13.09,1.09.48,1.08.38.12,1.11,1.87,1.12,1.75,0s-.71-1.43-1.65-1.74c-.08-.03-.3-.19-.21-.07-.06-.08.01-.24.07-.42.06-.2-.02.02.03-.08.02-.03.03-.08.06-.11-.02.02-.08.09.04-.03s.23-.24.35-.35c.36-.32.79-.56,1.23-.75,2.19-.92,4.89-.73,7.15-.15.87.23,1.77.49,2.5,1.05-.15-.12.27.26.17.17s.04.08.05.08c-.03-.02-.02-.03,0-.05.06-.12-.02.17-.04.25-.05.15-.11.24-.23.35-.27.24-.6.4-.85.68-.63.72-.71,1.54-.71,2.43v8.34l.87-.87h-9.69l.87.87v-9.59c0-1.13-1.75-1.13-1.75,0Z"/>
        <path class="st4" d="M63.12,86.11c1.14-.24,2.28-.48,3.43-.72.22-.05.44-.11.66-.14.16-.02.16-.09.24.11.07.17.1.36.15.54l2.09,7.7.88,3.24c.04.15.16.39.14.55-.04.29-.16.23-.25.12-.54-.64-.96-1.42-1.43-2.11l-2.45-3.63-2.59-3.84-.78-1.16c-.12-.18-.44-.55-.08-.66,1.08-.32.62-2.01-.47-1.69-1.28.38-1.82,1.81-1.15,2.97.1.17.23.34.34.51l2.23,3.31c1.6,2.37,3.17,4.75,4.79,7.1.31.45.66.85,1.21,1,1.13.3,2.28-.58,2.36-1.72.06-.85-.38-1.84-.59-2.65l-2.44-9.03c-.09-.33-.17-.67-.27-1-.34-1.06-1.26-1.56-2.33-1.37-1.39.25-2.78.58-4.16.88-1.1.23-.64,1.92.47,1.69Z"/>
        <path class="st4" d="M66.86,84.09c-.17-.45-.28-.93-.37-1.4-.08-.43-.12-.86-.12-1.3,0-.48.07-.94,0-1.42-.1-.67-.47-1.3-1.04-1.67-.48-.31-1.16-.37-1.59.06-.12.12-.2.27-.26.43,0,.02-.04.09-.03.11-.06-.13.26-.32.35-.35.13-.04.11,0,.24,0-.03,0-.06-.01-.09-.02-.09-.04.14.08.01,0-.04-.02-.08-.04-.12-.07-.38-.21-.73-.48-1.14-.63-.54-.2-1.16,0-1.32.6-.08.31-.02.6-.01.91,0,.09,0,.17,0,.26s0-.03,0-.04c0,0-.05.1,0,0,.05-.09.01-.02,0,0,.03-.05.07-.08.11-.12.08-.06.2-.11.24-.09-.1-.07-.49-.03-.59,0-.35.08-.6.33-.71.68-.23.74.04,1.6.51,2.18l.48-1.15c-.46.05-.97.11-1.38.34-.35.2-.59.58-.49,1,.08.34.38.63.65.84.36.28.8.38,1.25.33.07,0,.62-.07.64-.16,0,.02-.09,0-.1,0-.04.02-.08,0,0,0,.03,0-.06-.04-.05-.02,0,.02.15.13.03.01.04.03.07.07.11.1.04.04.08.09.12.14.05.06-.01-.02-.02-.03.03.04.06.08.09.12.16.24.31.49.44.75.07.13.13.27.19.4.03.06.06.13.09.19.04.09-.04-.1.02.05.05.11.09.23.13.34.16.45.57.58.99.4.81-.35,1.62-.7,2.44-1.05.33-.14.41-.64.24-.92-.2-.35-.59-.39-.92-.24-.81.35-1.62.7-2.44,1.05l.99.4c-.27-.75-.61-1.54-1.09-2.18-.33-.44-.76-.89-1.36-.88-.17,0-.31.06-.47.11-.08.02-.17.05-.24.06-.02,0-.21-.02-.12,0-.07-.01-.12-.04-.17-.09s-.09-.09-.14-.15c-.01-.01-.07-.05-.03-.04.02.02.02.02,0,0-.04-.07-.04-.01.01.18.04.28-.07.32-.15.45,0-.01.05-.02.06-.03.06-.05-.11.04-.03.01.12-.04.24-.07.36-.1.11-.02.22-.04.33-.06.05-.01-.17.02-.04,0,.02,0,.03,0,.05,0,.61-.06.86-.68.48-1.15.18.22.05.06,0,0-.07-.12-.1-.18-.12-.24-.04-.11-.06-.21-.07-.32,0-.07,0-.14,0-.21,0-.03.01-.06.02-.09-.02.07-.05.13-.11.17.06-.06-.16.09-.18.1.1-.03-.16-.03-.07.01.04.02.11,0,.15.01.23.02.45,0,.66-.1.58-.32.53-1.03.49-1.59,0-.06,0-.11,0-.17,0-.08.05-.15,0,0,.05-.13-.09.14-.02.04-.07.11-.16.18-.29.22.11-.03-.19.01-.08.01-.02,0-.17-.05-.09-.01.02.01.07.03.1.03.09.01-.14-.08.02,0,.61.33,1.56,1.18,2.23.51.11-.11.18-.24.22-.38.05-.15-.09.1-.04.05-.07.08-.12.1-.23.1.08,0,.12.04-.03-.01.05.02.21.09.05,0,.04.02.08.05.13.07.14.08-.1-.1.03.02.03.03.2.22.13.12.17.23.24.43.27.64.06.44-.04.89-.03,1.33.01.48.07.97.16,1.44s.2.98.38,1.44c.13.34.45.57.83.47.33-.09.6-.49.47-.83Z"/>
        <path class="st4" d="M29.05,87.01c-1.02-.59-.88-1.68-.78-2.68.1-.88.24-1.76.44-2.64.37-1.61.96-3.63,2.26-4.65.61-.48,1.27-.64,2.06-.51.94.15,2.04.63,2.61,1.41,1.08,1.46-.22,3.62-1.13,4.93-.69,1.01-1.5,1.93-2.34,2.81s-1.79,2.03-3.13,1.33c-.99-.53-1.88.98-.88,1.51.81.43,1.72.58,2.62.35.78-.2,1.37-.7,1.93-1.25.9-.89,1.76-1.83,2.54-2.83,1.42-1.82,3.19-4.47,2.31-6.9s-4.16-3.78-6.48-2.9-3.28,3.3-3.87,5.44c-.34,1.26-.55,2.55-.69,3.84-.08.68-.16,1.36,0,2.04.21.92.83,1.74,1.64,2.21.98.56,1.86-.95.88-1.51Z"/>
        <path class="st4" d="M26.95,87.16c-.64,1.12-1.24,2.27-1.93,3.36-.32.5-.85.51-1.36.7-.57.21-1.12.53-1.44,1.06-.58.98-.14,2.63,1.17,2.64.83,0,1.64-.53,2.25-1.04l-1.04-.61c-.22.6-.32,1.33-.15,1.95.32,1.21,1.83,1.64,2.88,1.06,1.12-.62.92-2.15.62-3.17-.11-.39-.16-.66.02-1.02l.54-1.09,1.15-2.32c.15-.29.09-.69-.22-.86l-1.62-.87c-.71-.38-1.34.7-.63,1.08l1.62.87-.22-.86c-.59,1.19-1.2,2.37-1.77,3.57-.25.53-.31,1.05-.14,1.62.13.42.26.85.26,1.3,0,.37-.04.67-.43.73-.19.03-.42.02-.6-.05-.1-.04-.16-.1-.2-.19s.03.08,0-.01c-.02-.05-.03-.1-.04-.14-.04-.16-.02-.03-.02-.2,0-.1,0-.2,0-.3,0-.15,0-.03.02-.15.04-.21.09-.41.16-.61.23-.64-.61-.97-1.04-.61-.12.1.09-.06-.03.02s-.23.16-.34.24c-.29.19-.57.36-.9.41.07-.01-.13,0-.16,0,.05,0,0-.01,0-.01-.02-.04.03.08-.03-.04-.04-.09-.07-.19-.08-.3-.04-.42.28-.66.62-.82.45-.22.96-.24,1.41-.49.38-.21.67-.53.89-.9.33-.56.65-1.13.97-1.69l.92-1.61c.4-.7-.68-1.33-1.08-.63Z"/>
      </g>
    </pattern>
  </defs>
  <rect id="Rectangle_46" class="st1" x="0" width="1920" height="841"/>
  <g id="Rectangle_26">
    <rect class="st3" x="0" width="1920" height="841"/>
    <rect class="st2" x=".5" y=".31" width="1919" height="840.38"/>
  </g>
</svg>